<svg id="Icons" xmlns="http://www.w3.org/2000/svg" viewBox="0 0 512 512"><defs><style>.cls-1{fill:#29a3fb;}.cls-2{fill:#0989d8;}.cls-3{fill:#c2aacf;}.cls-4{fill:#decee5;}.cls-5{fill:#f4e6f4;}.cls-6{fill:#a583bb;}.cls-7{fill:#fff;}</style></defs><title>019-beer-export</title><circle class="cls-1" cx="256" cy="256" r="255.98"/><path class="cls-2" d="M6.16,200.18a255.62,255.62,0,0,1,145.56-178c129.11-57.59,280.47.38,338.06,129.49A254.72,254.72,0,0,1,509,295.35,77,77,0,0,0,493.59,299c-26.47,9.21-50.09,31.78-77.89,28.2-19.07-2.45-34.4-17.12-45-33.17s-17.86-34.21-29.31-49.67A112.54,112.54,0,0,0,185.3,219.88c-17.29,12.43-34,30.78-55.22,28.67-28.81-2.88-43.13-42-71.85-45.64C49,201.74,39.7,204.59,30.39,205A54.62,54.62,0,0,1,6.16,200.18Z"/><path class="cls-3" d="M421.35,251v69.67a52.57,52.57,0,0,1-52.57,52.56H339V342.78h14.82c22.73,0,41.15-14.39,41.15-37.11V266a8.54,8.54,0,0,0-8.54-8.55H325V231h76.43A20,20,0,0,1,421.35,251Z"/><path class="cls-4" d="M421.35,251v58.62c0,29-19,55.9-48,55.9h-6.19a6,6,0,0,1-6-6v-3.31a6,6,0,0,1,6-6h0c22.73,0,36.62-21.76,36.62-44.48V254.92a8.54,8.54,0,0,0-8.54-8.54H348.59a6,6,0,0,1-6-6v-3.3a6,6,0,0,1,6-6h52.8A20,20,0,0,1,421.35,251Z"/><ellipse class="cls-5" cx="413.79" cy="269.54" rx="7.55" ry="16.63"/><ellipse class="cls-5" cx="413.79" cy="302.83" rx="5.24" ry="11.54"/><path class="cls-3" d="M348.59,394.45v31.34A16.17,16.17,0,0,1,332.41,442H159a16.17,16.17,0,0,1-16.18-16.17V394.45a468.49,468.49,0,0,1,7.55-83.74l1.52-8.35a467.57,467.57,0,0,0,7.55-83.74v-39.2H332v39.2a467.57,467.57,0,0,0,7.55,83.74l1.52,8.35A468.49,468.49,0,0,1,348.59,394.45Z"/><path class="cls-4" d="M348.59,394.45v31.34A16.17,16.17,0,0,1,332.41,442H194.54a16.17,16.17,0,0,1-16.17-16.17V394.45a467.57,467.57,0,0,1,7.55-83.74l1.51-8.35A467.58,467.58,0,0,0,195,218.62v-39.2H332v39.2a467.57,467.57,0,0,0,7.55,83.74l1.52,8.35A468.49,468.49,0,0,1,348.59,394.45Z"/><path class="cls-6" d="M287.74,315.77a42.53,42.53,0,0,1-31.27,36.32L245.71,355l-10.77-2.89a42.53,42.53,0,0,1-31.27-36.32A42,42,0,0,1,204.85,300l2.88-10.76,7.44,2,3.32.89c.92.24,1.82.53,2.7.83a51.19,51.19,0,0,1,15-34.72l9.51-9.5,9.5,9.5a51.19,51.19,0,0,1,15,34.72c.88-.3,1.78-.59,2.7-.83l3.32-.89,7.44-2L286.56,300A42,42,0,0,1,287.74,315.77Z"/><path class="cls-6" d="M254.07,386a3.37,3.37,0,0,1-2.29.89h-12a3,3,0,0,1-.52,0,3.31,3.31,0,0,1-1.77-.85,3.39,3.39,0,0,1-1-3.49l4.79-16.39h9l1.28,4.36,3.51,12A3.4,3.4,0,0,1,254.07,386Z"/><path class="cls-3" d="M254.07,386a3.37,3.37,0,0,1-2.29.89h-12a3,3,0,0,1-.52,0,3.31,3.31,0,0,1-1.77-.85l3.8-13h9l1.28,4.35Z"/><path class="cls-3" d="M287.74,315.77a42.53,42.53,0,0,1-31.27,36.32L245.71,355l-10.77-2.89a42.53,42.53,0,0,1-31.27-36.32,41.27,41.27,0,0,1,1.18-6.22l2.88-10.76,7.44,2,3.32.88q1.38.38,2.7.84a51.22,51.22,0,0,1,15-34.73l9.51-9.49,5.09,5.08,4.41,4.41a51.24,51.24,0,0,1,15,34.73q1.32-.47,2.7-.84l3.32-.88,7.44-2,2.88,10.76A41.27,41.27,0,0,1,287.74,315.77Z"/><path class="cls-6" d="M265.78,321.8a42.41,42.41,0,0,1-12.2,25.3L245.71,355l-7.88-7.88a42.56,42.56,0,0,1,0-60.2l7.88-7.88,7.87,7.88A42.49,42.49,0,0,1,265.78,321.8Z"/><path class="cls-3" d="M265.78,321.8a42.41,42.41,0,0,1-12.2,25.3L245.71,355l-7.88-7.88a42.41,42.41,0,0,1-12.2-25.3,42.41,42.41,0,0,1,12.2-25.31l7.88-7.87,4.22,4.22,3.65,3.65A42.41,42.41,0,0,1,265.78,321.8Z"/><path class="cls-6" d="M299.41,312.42v11.14a42.56,42.56,0,0,1-42.56,42.56H234.56A42.56,42.56,0,0,1,192,323.56V312.42h11.15A42.56,42.56,0,0,1,245.71,355a42.55,42.55,0,0,1,42.55-42.56Z"/><path class="cls-3" d="M299.41,322v1.55a42.56,42.56,0,0,1-42.56,42.56H234.56A42.56,42.56,0,0,1,192,323.56V322h11.15a42.56,42.56,0,0,1,42.56,42.56A42.55,42.55,0,0,1,288.26,322Z"/><ellipse class="cls-4" cx="288.29" cy="334.53" rx="10.06" ry="5.58" transform="translate(-126.36 486.47) rotate(-69.37)"/><ellipse class="cls-4" cx="276.99" cy="351.08" rx="7.24" ry="3.08" transform="translate(-165.96 289.64) rotate(-43.83)"/><ellipse class="cls-4" cx="207.24" cy="331.41" rx="5.58" ry="10.06" transform="translate(-148.34 493.72) rotate(-82.52)"/><ellipse class="cls-4" cx="225.92" cy="338.65" rx="3.08" ry="7.24" transform="matrix(0.54, -0.84, 0.84, 0.54, -181.14, 343.52)"/><ellipse class="cls-4" cx="248.53" cy="301.6" rx="4.45" ry="8.03" transform="translate(-140.92 269.07) rotate(-45.74)"/><ellipse class="cls-4" cx="257.01" cy="315.16" rx="2.46" ry="5.78" transform="translate(-93 108.11) rotate(-20.2)"/><ellipse class="cls-4" cx="281.15" cy="306.21" rx="2.09" ry="4.91" transform="translate(-76.52 94.35) rotate(-16.8)"/><ellipse class="cls-4" cx="210.26" cy="306.21" rx="4.91" ry="2.09" transform="translate(-143.65 418.97) rotate(-73.2)"/><ellipse class="cls-4" cx="250.9" cy="272.92" rx="4.45" ry="8.03" transform="translate(-119.55 287.24) rotate(-49.62)"/><ellipse class="cls-4" cx="260.28" cy="285.88" rx="2.46" ry="5.78" transform="translate(-93.99 131.08) rotate(-24.08)"/><rect class="cls-6" x="142.82" y="398.91" width="205.77" height="13.38"/><rect class="cls-3" x="178.37" y="398.91" width="170.22" height="13.38"/><rect class="cls-6" x="159.44" y="198.87" width="172.52" height="13.38"/><rect class="cls-3" x="194.99" y="198.87" width="136.98" height="13.38"/><path class="cls-5" d="M400.44,168.23V231H388.21V172a3.19,3.19,0,0,0-3.19-3.19H362.47V156.53h26.26A11.72,11.72,0,0,1,400.44,168.23Z"/><path class="cls-7" d="M400.44,168.23v57.64h0a7.06,7.06,0,0,1-7.07-7.06v-52a3.2,3.2,0,0,0-3.2-3.2H374.7a7.07,7.07,0,0,1-7.07-7.07h21.1A11.7,11.7,0,0,1,400.44,168.23Z"/><path class="cls-3" d="M401.27,164.75l-12.62,12.62a4.48,4.48,0,0,1-6.34,0l-2.71-2.7a4.46,4.46,0,0,1-.47-5.78,3.09,3.09,0,0,1,.47-.57l12.62-12.62a4.48,4.48,0,0,1,6.34,0l2.71,2.71a3,3,0,0,1,.46.57A4.46,4.46,0,0,1,401.27,164.75Z"/><path class="cls-4" d="M401.73,159a4.1,4.1,0,0,1-.46.57l-12.62,12.61a4.47,4.47,0,0,1-6.34,0l-2.71-2.71a3.58,3.58,0,0,1-.47-.56,3.09,3.09,0,0,1,.47-.57l12.62-12.62a4.48,4.48,0,0,1,6.34,0l2.71,2.71A3,3,0,0,1,401.73,159Z"/><path class="cls-6" d="M438.53,128.25a9.8,9.8,0,0,1-2.88,6.93l-23.9,23.9a9.8,9.8,0,0,1-13.86,0,9.63,9.63,0,0,1-1.93-2.73,9.82,9.82,0,0,1,1.93-11.13l23.9-23.9a9.8,9.8,0,0,1,11.13-1.93,9.63,9.63,0,0,1,2.73,1.93A9.8,9.8,0,0,1,438.53,128.25Z"/><path class="cls-3" d="M433.87,123.59a9.74,9.74,0,0,1-2.88,6.93l-23.9,23.9A9.76,9.76,0,0,1,396,156.35a9.82,9.82,0,0,1,1.93-11.13l23.9-23.9a9.8,9.8,0,0,1,11.13-1.93A9.65,9.65,0,0,1,433.87,123.59Z"/><rect class="cls-6" x="129.09" y="145.87" width="233.38" height="33.55" rx="8.13"/><path class="cls-3" d="M362.47,154v13.2h-213a8.13,8.13,0,0,1-8.14-8.13v-13.2h213A8.13,8.13,0,0,1,362.47,154Z"/><ellipse class="cls-4" cx="276.57" cy="155.09" rx="20.55" ry="7.55"/><ellipse class="cls-4" cx="317.71" cy="155.09" rx="14.26" ry="5.24"/><path class="cls-6" d="M262.23,59.64a18.81,18.81,0,0,1-3.08,4,19,19,0,1,1-26.9-26.9,18.68,18.68,0,0,1,4-3.08,19,19,0,0,1,26,25.94Z"/><path class="cls-3" d="M262.23,59.64a19,19,0,0,1-26-25.94,19,19,0,0,1,26,25.94Z"/><ellipse class="cls-4" cx="245.91" cy="38.62" rx="5.39" ry="7.94" transform="translate(172.35 276.42) rotate(-81.74)"/><ellipse class="cls-4" cx="257.78" cy="46.82" rx="2.91" ry="5.52" transform="translate(16.63 149.22) rotate(-33.3)"/><path class="cls-6" d="M332,145.87H159.44l12.91-37.38a26.5,26.5,0,0,1,25-17.83H294a26.47,26.47,0,0,1,25,17.83l7.69,22.27Z"/><path class="cls-3" d="M326.74,130.76H207a15.46,15.46,0,0,1-14.61-20.51l5.83-16.87a25,25,0,0,1,1.11-2.72H294a26.47,26.47,0,0,1,25,17.83Z"/><ellipse class="cls-4" cx="248.06" cy="103.95" rx="20.55" ry="7.55"/><ellipse class="cls-4" cx="289.2" cy="103.95" rx="14.26" ry="5.24"/><path class="cls-3" d="M277.62,90.66H213.78l9.89-18.75a12.07,12.07,0,0,1,10.67-6.44h22.72a12.07,12.07,0,0,1,10.67,6.44L274.1,84Z"/><path class="cls-4" d="M274.1,84H243.77a10,10,0,0,1-8.83-14.63l2-3.89h20.08a12.07,12.07,0,0,1,10.67,6.44Z"/></svg>